<svg width="1440" height="900" viewBox="0 0 1440 900" fill="none" xmlns="http://www.w3.org/2000/svg">
<path d="M-1133.22 883.76C-1132.05 784.827 -983.338 586.362 -397.809 583.962C334.103 580.961 101.609 305.768 367.725 77.1871C633.841 -151.394 884.236 119.305 1081.84 -132.035C1239.92 -333.107 1392.21 -650.907 1329.41 -774.693" stroke="#F9F9F9" stroke-width="5.97235"/>
<path d="M-1082.34 946.155C-1081.18 847.222 -932.465 648.756 -346.936 646.356C384.976 643.356 152.482 368.162 418.598 139.582C684.714 -88.999 935.109 181.699 1132.71 -69.6405C1290.79 -270.712 1443.08 -588.513 1380.28 -712.298" stroke="#F9F9F9" stroke-width="5.97235"/>
<path d="M-1046.68 1016.18C-1045.52 917.243 -896.803 718.778 -311.274 716.378C420.638 713.377 188.144 438.184 454.26 209.603C720.377 -18.9776 970.772 251.721 1168.37 0.380962C1326.45 -200.691 1478.74 -518.491 1415.94 -642.277" stroke="#F9F9F9" stroke-width="5.97235"/>
<path d="M-981.921 1088.4C-980.756 989.472 -832.043 791.006 -246.514 788.606C485.398 785.606 252.904 510.412 519.02 281.832C785.136 53.251 1035.53 323.949 1233.13 72.6095C1391.21 -128.462 1543.5 -446.263 1480.7 -570.048" stroke="#F9F9F9" stroke-width="5.97235"/>
</svg>
